<svg xmlns="http://www.w3.org/2000/svg" width="512" height="512" viewBox="0 0 512 512" fill="none">
  <defs><linearGradient id="sky" x1="0" y1="0" x2="0" y2="1"><stop stop-color="#DFF5FF"/><stop offset="1" stop-color="#EFFDFF"/></linearGradient><linearGradient id="water" x1="0" y1="0" x2="1" y2="1"><stop stop-color="#47C7F3"/><stop offset="1" stop-color="#228DD6"/></linearGradient></defs>
  <rect width="512" height="512" rx="48" fill="url(#sky)"/>
  <path d="M80 378 C160 330 210 354 260 372 C320 394 382 350 444 376 V438 H80Z" fill="#9BDDA7"/>
  <path d="M118 138 C126 184 111 213 126 247 C145 290 185 293 196 333 C204 362 190 391 168 412" stroke="url(#water)" stroke-width="34" stroke-linecap="round"/>
  <path d="M178 86 C187 114 178 131 185 151" stroke="#45C9F7" stroke-width="18" stroke-linecap="round"/>
  <path d="M245 106 C254 134 245 151 252 170" stroke="#45C9F7" stroke-width="16" stroke-linecap="round"/>
  <path d="M302 92 C311 119 302 135 309 154" stroke="#45C9F7" stroke-width="14" stroke-linecap="round"/>
  <ellipse cx="350" cy="353" rx="42" ry="18" fill="#DFF9FF" opacity="0.8"/>
  <ellipse cx="386" cy="332" rx="25" ry="11" fill="#DFF9FF" opacity="0.7"/>
  <circle cx="108" cy="94" r="20" fill="#FFFFFF" opacity="0.9"/><circle cx="133" cy="94" r="16" fill="#FFFFFF" opacity="0.9"/>
  <text x="256" y="468" text-anchor="middle" font-family="serif" font-size="90" font-weight="900" fill="#1477B7">水</text>
</svg>
